<svg width="275" height="413" viewBox="0 0 275 413" fill="none" xmlns="http://www.w3.org/2000/svg">
<g clip-path="url(#clip0_108_630)">
<path d="M40.659 382.151L40.3181 382.023C40.2432 381.995 32.7889 379.144 29.2969 372.68C25.8048 366.216 27.5147 358.432 27.5324 358.354L27.6129 358L27.9536 358.128C28.0284 358.156 35.4827 361.007 38.9748 367.471C42.4669 373.935 40.757 381.719 40.7393 381.796L40.659 382.151ZM29.8561 372.379C32.8084 377.845 38.6991 380.646 40.1916 381.286C40.4754 379.689 41.3653 373.232 38.4156 367.772C35.4663 362.312 29.5732 359.506 28.0801 358.865C27.7962 360.463 26.9065 366.919 29.8561 372.379V372.379Z" fill="#38972E"/>
<path d="M31.9656 370.516C38.2411 374.285 40.658 381.771 40.658 381.771C40.658 381.771 32.9003 383.146 26.6248 379.377C20.3493 375.609 17.9324 368.123 17.9324 368.123C17.9324 368.123 25.6901 366.747 31.9656 370.516Z" fill="#38972E"/>
<path d="M226.751 317.687C239.379 317.687 249.616 315.416 249.616 312.615C249.616 309.814 239.379 307.543 226.751 307.543C214.122 307.543 203.885 309.814 203.885 312.615C203.885 315.416 214.122 317.687 226.751 317.687Z" fill="#141010"/>
<path d="M201.69 321.376L177.86 381.603L178.451 381.835L202.28 321.609L201.69 321.376Z" fill="#141010"/>
<path d="M251.182 321.374L250.591 321.606L274.41 381.837L275 381.605L251.182 321.374Z" fill="#141010"/>
<path d="M226.751 321.49H226.115V381.721H226.751V321.49Z" fill="#141010"/>
<path d="M198.311 343.08L198.027 343.647L222.163 355.694L222.447 355.126L198.311 343.08Z" fill="#141010"/>
<path d="M254.555 343.081L230.419 355.127L230.704 355.694L254.839 343.648L254.555 343.081Z" fill="#141010"/>
<path d="M195.469 276.635C195.469 276.635 185.942 266.807 183.401 272.83C180.861 278.854 192.929 282.024 192.929 282.024L195.469 276.635Z" fill="#FFB8B8"/>
<path d="M216.112 293.752L203.726 311.505L190.705 329.574L186.895 381.88L199.915 383.465C199.915 383.465 198.01 369.2 201.503 360.64C204.996 352.081 204.996 336.548 204.996 336.548L227.544 309.286L240.248 331.159L253.903 383.465L265.336 382.514C265.336 382.514 261.208 358.421 261.843 355.885C262.478 353.349 255.174 332.11 255.174 332.11L249.457 290.582C249.457 290.582 223.416 286.778 216.112 293.752Z" fill="#2F2E41"/>
<path d="M221.504 246.899C226.544 246.899 230.63 242.821 230.63 237.79C230.63 232.758 226.544 228.68 221.504 228.68C216.463 228.68 212.377 232.758 212.377 237.79C212.377 242.821 216.463 246.899 221.504 246.899Z" fill="#FFB8B8"/>
<path d="M227.544 240.812L234.214 247.787L236.119 258.565L219.287 261.418L220.558 251.591C220.558 251.591 220.24 246.836 218.97 245.885C217.7 244.934 227.544 240.812 227.544 240.812Z" fill="#FFB8B8"/>
<path d="M218.97 252.859L220.517 251.116L225.639 255.712L234.214 247.787L247.234 291.534C247.234 291.534 238.977 288.681 231.038 292.485C223.098 296.289 212.618 295.338 212.618 295.338L212.936 259.833L218.97 252.859Z" fill="#575A89"/>
<path d="M209.76 259.833L220.401 250.116C220.401 250.116 224.051 255.395 222.463 265.539C220.875 275.684 219.605 295.655 213.889 301.044C208.172 306.433 205.949 308.335 205.949 308.335L211.666 285.511C211.666 285.511 207.22 262.369 209.76 259.833Z" fill="#F2C94C"/>
<path d="M231.168 244.602C231.168 244.602 250.093 242.715 250.41 244.934C250.728 247.153 248.505 272.513 248.505 272.513C248.505 272.513 268.194 298.825 259.937 303.897C256.087 306.262 252.76 301.067 248.028 294.545C242.614 287.081 235.992 277.715 235.484 273.147C234.531 264.588 231.168 244.602 231.168 244.602Z" fill="#F2C94C"/>
<path d="M210.713 268.709L209.125 281.072L195.151 275.049L190.705 284.242L213.571 292.801C213.571 292.801 217.699 270.928 210.713 268.709Z" fill="#F2C94C"/>
<path d="M188.165 380.295L178.955 395.194C178.955 395.194 161.488 404.704 167.522 407.24C173.556 409.776 188.165 404.387 189.753 401.217C191.341 398.047 191.976 397.413 192.611 398.047C193.246 398.681 201.186 396.145 201.503 395.194C201.821 394.243 201.503 383.465 198.645 382.197C195.787 380.929 188.165 380.295 188.165 380.295Z" fill="#2F2E41"/>
<path d="M254.221 381.88L256.126 393.609L258.349 401.851C258.349 401.851 259.937 413.898 267.559 412.947C271.37 412.471 272.72 409.777 273.117 407.201C273.472 404.751 273.025 402.252 271.844 400.075L267.559 392.024L263.748 381.246L254.221 381.88Z" fill="#2F2E41"/>
<path d="M212.385 239.457C212.385 239.457 211.145 238.12 211.271 236.447C211.353 235.495 211.292 234.536 211.09 233.602C211.09 233.602 211.478 230.863 212.051 229.275C212.624 227.687 212.141 227.135 214.605 226.268C217.068 225.401 215.5 222.266 222.763 224.765C223.04 225.043 223.392 225.234 223.777 225.312C224.162 225.391 224.561 225.354 224.925 225.206C226.266 224.716 227.074 226.555 227.074 226.555C227.074 226.555 227.91 225.87 228.38 226.582C228.849 227.294 231.119 225.671 231.952 230.853C232.784 236.034 229.926 240.654 229.926 240.654C229.926 240.654 229.525 232.363 224.808 232.213C220.091 232.062 214.756 230.279 214.094 233.77C213.748 235.726 213.175 237.634 212.385 239.457V239.457Z" fill="#2F2E41"/>
<path d="M245.422 287.121C245.422 287.121 233.966 294.62 239.416 298.24C244.867 301.861 250.249 290.623 250.249 290.623L245.422 287.121Z" fill="#FFB8B8"/>
<path d="M248.187 244.934C248.187 244.934 251.045 243.349 251.998 246.519C252.951 249.689 262.796 274.099 262.796 274.099L250.41 293.119L241.518 286.779L252.315 274.099L245.011 265.223L248.187 244.934Z" fill="#F2C94C"/>
<path d="M188.641 250.485H188.309V241.394C188.309 240.703 188.172 240.019 187.907 239.381C187.642 238.743 187.254 238.162 186.765 237.674C186.275 237.185 185.694 236.798 185.055 236.533C184.415 236.269 183.73 236.133 183.038 236.133H163.742C163.05 236.133 162.365 236.269 161.725 236.533C161.086 236.798 160.505 237.185 160.015 237.674C159.526 238.162 159.137 238.743 158.872 239.381C158.608 240.019 158.471 240.703 158.471 241.394V291.268C158.471 291.959 158.608 292.643 158.872 293.282C159.137 293.92 159.526 294.5 160.015 294.989C160.505 295.477 161.086 295.865 161.725 296.129C162.365 296.394 163.05 296.53 163.742 296.53H183.038C183.73 296.53 184.415 296.394 185.055 296.129C185.694 295.865 186.275 295.477 186.765 294.989C187.254 294.5 187.642 293.92 187.907 293.282C188.172 292.643 188.309 291.959 188.309 291.268V256.956H188.641V250.485Z" fill="white"/>
<path d="M183.126 237.627H180.607C180.723 237.91 180.767 238.218 180.736 238.522C180.704 238.827 180.599 239.119 180.427 239.373C180.256 239.627 180.025 239.836 179.755 239.98C179.484 240.123 179.182 240.199 178.875 240.199H167.821C167.515 240.199 167.213 240.123 166.942 239.98C166.671 239.836 166.44 239.627 166.269 239.373C166.098 239.119 165.992 238.827 165.961 238.522C165.93 238.218 165.974 237.91 166.09 237.627H163.737C162.693 237.627 161.692 238.041 160.954 238.778C160.216 239.515 159.801 240.514 159.801 241.556V291.357C159.801 291.873 159.903 292.384 160.101 292.86C160.298 293.337 160.588 293.77 160.954 294.135C161.32 294.5 161.753 294.789 162.231 294.987C162.709 295.184 163.221 295.286 163.737 295.286H183.126C183.643 295.286 184.154 295.184 184.632 294.987C185.11 294.789 185.543 294.5 185.909 294.135C186.275 293.77 186.565 293.337 186.762 292.86C186.96 292.384 187.062 291.873 187.062 291.357V241.556C187.062 240.514 186.647 239.515 185.909 238.778C185.171 238.041 184.17 237.627 183.126 237.627V237.627Z" fill="#38972E"/>
<path d="M173.37 261.926L177.512 269.087L181.655 276.249H173.37H165.085L169.228 269.087L173.37 261.926Z" fill="white"/>
<path d="M173.35 267.11L175.23 270.359L177.108 273.608H173.35H169.592L171.471 270.359L173.35 267.11Z" fill="#F2C94C"/>
<path d="M173.35 256.546L175.23 259.795L177.108 263.043H173.35H169.592L171.471 259.795L173.35 256.546Z" fill="#F2C94C"/>
<path opacity="0.2" d="M92.3877 287.301L119.713 334.545L147.038 381.788H92.3877H37.7368L65.0622 334.545L92.3877 287.301Z" fill="#38972E"/>
<path d="M92.2591 321.504L104.655 342.935L117.051 364.367H92.2591H67.4678L79.8634 342.935L92.2591 321.504Z" fill="#F2C94C"/>
<path d="M92.2591 251.814L104.655 273.246L117.051 294.677H92.2591H67.4678L79.8634 273.246L92.2591 251.814Z" fill="#F2C94C"/>
<path d="M178.161 381.404H0V382.038H178.161V381.404Z" fill="#141010"/>
<path d="M54.9441 259.863C53.7346 258.479 52.5927 256.245 51.924 254.444C51.2548 256.245 50.1128 258.479 48.9033 259.863L51.6065 258.887V273.148H52.2416V258.887L54.9441 259.863Z" fill="#38972E"/>
<path d="M142.119 307.255C140.91 305.87 139.768 303.636 139.099 301.836C138.43 303.636 137.288 305.87 136.078 307.255L138.781 306.279V320.539H139.417V306.279L142.119 307.255Z" fill="#38972E"/>
<path d="M114.807 226.419C113.598 225.034 112.456 222.8 111.787 221C111.118 222.8 109.976 225.034 108.767 226.419L111.47 225.443V239.703H112.105V225.443L114.807 226.419Z" fill="#38972E"/>
<!--<path d="M46.8074 66.4191C45.5979 65.0344 44.4559 62.8005 43.7873 61C43.118 62.8005 41.9761 65.0344 40.7666 66.4191L43.4697 65.4431V79.7033H44.1049V65.4432L46.8074 66.4191Z" fill="#38972E"/>-->
</g>
<defs>
<clipPath id="clip0_108_630">
<rect width="275" height="413" fill="white"/>
</clipPath>
</defs>
</svg>
