<svg width="329" height="279" viewBox="0 0 329 279" fill="none" xmlns="http://www.w3.org/2000/svg">
<g clip-path="url(#clip0_108_181)">
<path d="M193.205 71.625H183.45C182.953 71.6244 182.476 71.4267 182.125 71.0752C181.773 70.7237 181.575 70.2471 181.575 69.75V60C181.575 59.5029 181.773 59.0263 182.125 58.6748C182.476 58.3233 182.953 58.1256 183.45 58.125H193.205C193.702 58.1256 194.179 58.3233 194.53 58.6748C194.882 59.0263 195.08 59.5029 195.08 60V69.75C195.08 70.2471 194.882 70.7237 194.53 71.0752C194.179 71.4267 193.702 71.6244 193.205 71.625ZM183.45 58.875C183.152 58.8753 182.866 58.994 182.655 59.2049C182.444 59.4158 182.325 59.7017 182.325 60V69.75C182.325 70.0483 182.444 70.3342 182.655 70.5451C182.866 70.756 183.152 70.8747 183.45 70.875H193.205C193.503 70.8747 193.789 70.756 194 70.5451C194.211 70.3342 194.33 70.0483 194.33 69.75V60C194.33 59.7017 194.211 59.4158 194 59.2049C193.789 58.994 193.503 58.8753 193.205 58.875H183.45Z" fill="#E6E6E6"/>
<path d="M79.5326 13.5H69.7786C69.2813 13.4994 68.8045 13.3017 68.4529 12.9502C68.1012 12.5987 67.9034 12.1221 67.9028 11.625V1.875C67.9034 1.37789 68.1012 0.90131 68.4529 0.549803C68.8045 0.198295 69.2813 0.000568707 69.7786 0H79.5326C80.0299 0.000568707 80.5067 0.198295 80.8584 0.549803C81.21 0.90131 81.4078 1.37789 81.4084 1.875V11.625C81.4078 12.1221 81.21 12.5987 80.8584 12.9502C80.5067 13.3017 80.0299 13.4994 79.5326 13.5ZM69.7786 0.75C69.4802 0.750326 69.1941 0.868957 68.9831 1.07986C68.7721 1.29077 68.6535 1.57673 68.6531 1.875V11.625C68.6535 11.9233 68.7721 12.2092 68.9831 12.4201C69.1941 12.631 69.4802 12.7497 69.7786 12.75H79.5326C79.831 12.7497 80.1171 12.631 80.3281 12.4201C80.5391 12.2092 80.6578 11.9233 80.6581 11.625V1.875C80.6578 1.57673 80.5391 1.29077 80.3281 1.07986C80.1171 0.868957 79.831 0.750326 79.5326 0.75H69.7786Z" fill="#E6E6E6"/>
<path d="M187.202 66.75H177.448C176.951 66.7494 176.474 66.5517 176.122 66.2002C175.771 65.8487 175.573 65.3721 175.572 64.875V55.125C175.573 54.6279 175.771 54.1513 176.122 53.7998C176.474 53.4483 176.951 53.2506 177.448 53.25H187.202C187.699 53.2506 188.176 53.4483 188.528 53.7998C188.879 54.1513 189.077 54.6279 189.078 55.125V64.875C189.077 65.3721 188.879 65.8487 188.528 66.2002C188.176 66.5517 187.699 66.7494 187.202 66.75ZM177.448 54C177.15 54.0003 176.864 54.119 176.653 54.3299C176.442 54.5408 176.323 54.8267 176.323 55.125V64.875C176.323 65.1733 176.442 65.4592 176.653 65.6701C176.864 65.881 177.15 65.9997 177.448 66H187.202C187.5 65.9997 187.787 65.881 187.997 65.6701C188.208 65.4592 188.327 65.1733 188.327 64.875V55.125C188.327 54.8267 188.208 54.5408 187.997 54.3299C187.787 54.119 187.5 54.0003 187.202 54H177.448Z" fill="#E6E6E6"/>
<path d="M17.6322 148.125H7.87821C7.3809 148.124 6.90412 147.927 6.55247 147.575C6.20082 147.224 6.00301 146.747 6.00244 146.25V136.5C6.00301 136.003 6.20082 135.526 6.55247 135.175C6.90412 134.823 7.3809 134.626 7.87821 134.625H17.6322C18.1295 134.626 18.6063 134.823 18.958 135.175C19.3096 135.526 19.5074 136.003 19.508 136.5V146.25C19.5074 146.747 19.3096 147.224 18.958 147.575C18.6063 147.927 18.1295 148.124 17.6322 148.125ZM7.87821 135.375C7.57982 135.375 7.29374 135.494 7.08275 135.705C6.87176 135.916 6.75308 136.202 6.75275 136.5V146.25C6.75308 146.548 6.87176 146.834 7.08275 147.045C7.29374 147.256 7.57982 147.375 7.87821 147.375H17.6322C17.9306 147.375 18.2167 147.256 18.4277 147.045C18.6387 146.834 18.7574 146.548 18.7577 146.25V136.5C18.7574 136.202 18.6387 135.916 18.4277 135.705C18.2167 135.494 17.9306 135.375 17.6322 135.375H7.87821Z" fill="#E6E6E6"/>
<path d="M11.6298 143.25H1.87577C1.37846 143.249 0.901681 143.052 0.550029 142.7C0.198377 142.349 0.000568941 141.872 0 141.375V131.625C0.000568941 131.128 0.198377 130.651 0.550029 130.3C0.901681 129.948 1.37846 129.751 1.87577 129.75H11.6298C12.1271 129.751 12.6039 129.948 12.9555 130.3C13.3072 130.651 13.505 131.128 13.5056 131.625V141.375C13.505 141.872 13.3072 142.349 12.9555 142.7C12.6039 143.052 12.1271 143.249 11.6298 143.25ZM1.87577 130.5C1.57738 130.5 1.2913 130.619 1.08031 130.83C0.869314 131.041 0.750634 131.327 0.750309 131.625V141.375C0.750634 141.673 0.869314 141.959 1.08031 142.17C1.2913 142.381 1.57738 142.5 1.87577 142.5H11.6298C11.9282 142.5 12.2143 142.381 12.4252 142.17C12.6362 141.959 12.7549 141.673 12.7552 141.375V131.625C12.7549 131.327 12.6362 131.041 12.4252 130.83C12.2143 130.619 11.9282 130.5 11.6298 130.5H1.87577Z" fill="#E6E6E6"/>
<path d="M34.6753 32.265H124.943C129.299 32.265 133.525 33.7464 136.927 36.4657C140.329 39.1849 142.705 42.9803 143.663 47.2278L189.273 249.453C189.771 251.659 189.779 253.947 189.299 256.156C188.818 258.366 187.86 260.443 186.491 262.243C185.122 264.044 183.376 265.523 181.375 266.577C179.374 267.631 177.166 268.235 174.907 268.346L82.111 272.917C77.1421 273.161 72.2538 271.59 68.3584 268.497C64.4629 265.404 61.8264 261 60.9409 256.106L35.0678 113.131L33.1429 113.681L28.1923 86.5813L30.1737 86.0862L22.9516 46.1766C22.6423 44.4672 22.714 42.7106 23.1617 41.0321C23.6094 39.3536 24.422 37.7944 25.5417 36.4659C26.6613 35.1373 28.0604 34.072 29.6391 33.3458C31.2179 32.6197 32.9375 32.2507 34.6753 32.2651V32.265Z" fill="#3F3D56"/>
<path d="M113.059 36.624H123.596C126.622 36.624 129.558 37.6585 131.914 39.5557C134.271 41.453 135.908 44.0988 136.553 47.0541L180.333 247.629C180.585 248.784 180.585 249.98 180.332 251.134C180.08 252.289 179.581 253.376 178.87 254.32C178.158 255.264 177.252 256.044 176.211 256.606C175.171 257.168 174.022 257.499 172.842 257.576L80.3461 263.636C77.7366 263.807 75.1555 263.012 73.0954 261.402C71.0352 259.791 69.6403 257.48 69.1767 254.907L31.819 47.5929C31.5772 46.251 31.633 44.8725 31.9824 43.5546C32.3318 42.2367 32.9663 41.0114 33.8411 39.9654C34.7159 38.9193 35.8097 38.078 37.0454 37.5006C38.2811 36.9233 39.6284 36.624 40.9924 36.624H50.9884C51.9559 36.624 52.8963 36.9428 53.6642 37.5311C54.4321 38.1194 54.9846 38.9443 55.2361 39.8781C55.4582 40.7025 55.9459 41.4307 56.6238 41.95C57.3017 42.4694 58.132 42.7508 58.9861 42.7508H106.441C108.113 42.7508 109.724 42.1198 110.951 40.9839C112.178 39.848 112.931 38.2909 113.059 36.624L113.059 36.624Z" fill="white"/>
<path d="M39.0161 70.7275H139.361L150.051 118.875L48.395 120.75L39.0161 70.7275Z" fill="#38972E"/>
<path d="M134.305 161.907H157.929L158.679 166.428H135.055L134.305 161.907Z" fill="#38972E"/>
<path d="M153.526 138.846L53.3357 140.967L53.3457 141.438L153.536 139.317L153.526 138.846Z" fill="#2F2E41"/>
<path d="M156.591 152.749L54.5142 155.105L54.525 155.577L156.601 153.22L156.591 152.749Z" fill="#2F2E41"/>
<path d="M144.059 210.283H167.683L168.433 214.804H144.81L144.059 210.283Z" fill="#38972E"/>
<path d="M163.28 187.221L63.0898 189.342L63.0998 189.813L163.29 187.692L163.28 187.221Z" fill="#2F2E41"/>
<path d="M166.344 201.124L64.2681 203.48L64.279 203.952L166.355 201.595L166.344 201.124Z" fill="#2F2E41"/>
<path d="M230.93 274.203L226.46 274.203L224.333 256.969L230.931 256.969L230.93 274.203Z" fill="#A0616A"/>
<path d="M232.07 278.533L217.657 278.533V278.351C217.657 276.863 218.248 275.437 219.3 274.386C220.352 273.334 221.779 272.743 223.267 272.743H223.267L232.07 272.744L232.07 278.533Z" fill="#2F2E41"/>
<path d="M286.459 271.277L282.108 272.301L276.086 256.014L282.507 254.502L286.459 271.277Z" fill="#A0616A"/>
<path d="M288.562 275.232L274.533 278.534L274.491 278.356C274.15 276.909 274.398 275.385 275.181 274.12C275.964 272.856 277.217 271.954 278.665 271.613L278.666 271.613L287.234 269.596L288.562 275.232Z" fill="#2F2E41"/>
<path d="M230.017 201.513C230.025 200.615 230.291 179.419 236.103 171.405L236.189 171.287L256.445 174.08L255.992 178.529C256.883 179.395 263.891 186.715 265.914 204.049L287.414 261.767L277.419 262.675L247.832 199.669L232.175 268.157H222.267L230.017 201.513Z" fill="#2F2E41"/>
<path d="M233.73 172.187L235.71 161.796C235.323 161.298 233.605 158.902 233.988 156.095C234.237 154.263 235.331 152.657 237.24 151.32L242.372 139.35L242.441 139.309C242.786 139.106 250.958 134.382 255.413 138.839C255.524 138.925 266.492 147.628 262.088 159.368L256.65 175.675L233.73 172.187Z" fill="#CCCCCC"/>
<path d="M226.842 186.245C227.376 186.184 227.89 186.006 228.348 185.725C228.806 185.444 229.196 185.066 229.492 184.618C229.788 184.17 229.982 183.662 230.061 183.13C230.139 182.599 230.1 182.057 229.946 181.542L240.545 173.909L234.2 171.497L225.108 179.115C224.261 179.431 223.558 180.046 223.134 180.845C222.71 181.644 222.594 182.571 222.807 183.449C223.021 184.328 223.55 185.098 224.293 185.613C225.037 186.129 225.944 186.353 226.842 186.245Z" fill="#A0616A"/>
<path d="M228.79 173.897L244.97 161.154L240.16 144.726C239.933 143.948 239.869 143.132 239.972 142.328C240.074 141.524 240.341 140.75 240.756 140.054C241.14 139.398 241.657 138.829 242.274 138.384C242.89 137.939 243.593 137.628 244.337 137.47C247.107 136.884 249.622 138.435 251.809 142.079L251.826 142.112C252.188 142.996 260.617 163.825 254.181 168.279C247.885 172.636 233.285 178.978 233.138 179.042L232.967 179.116L228.79 173.897Z" fill="#CCCCCC"/>
<path d="M250.294 134.506C255.708 134.506 260.096 130.119 260.096 124.708C260.096 119.297 255.708 114.91 250.294 114.91C244.881 114.91 240.492 119.297 240.492 124.708C240.492 130.119 244.881 134.506 250.294 134.506Z" fill="#A0616A"/>
<path d="M265.661 121.211C270.45 121.211 274.333 117.33 274.333 112.543C274.333 107.756 270.45 103.875 265.661 103.875C260.872 103.875 256.99 107.756 256.99 112.543C256.99 117.33 260.872 121.211 265.661 121.211Z" fill="#2F2E41"/>
<path d="M273.141 119.72C272.019 120.531 270.718 121.062 269.349 121.267C267.979 121.473 266.58 121.347 265.269 120.902C263.958 120.456 262.773 119.703 261.813 118.706C260.852 117.708 260.145 116.496 259.75 115.169C259.899 116.358 260.294 117.503 260.909 118.532C261.523 119.56 262.344 120.451 263.321 121.146C264.297 121.842 265.407 122.327 266.58 122.572C267.753 122.818 268.965 122.817 270.138 122.57C271.311 122.324 272.42 121.837 273.396 121.14C274.371 120.443 275.191 119.552 275.805 118.523C276.418 117.493 276.811 116.348 276.959 115.159C277.108 113.97 277.008 112.763 276.666 111.614C276.86 113.157 276.635 114.724 276.015 116.15C275.395 117.576 274.402 118.81 273.141 119.72Z" fill="#2F2E41"/>
<path d="M238.919 119.731C240.433 117.022 241.012 115.89 242.964 114.243C244.69 112.786 246.814 112.358 248.526 113.738C250.552 112.863 252.806 112.665 254.953 113.173C257.101 113.68 259.028 114.867 260.447 116.556C261.866 118.245 262.702 120.347 262.831 122.549C262.96 124.751 262.375 126.936 261.163 128.78C259.951 130.623 258.176 132.026 256.103 132.781C254.029 133.536 251.767 133.602 249.653 132.969C247.539 132.337 245.685 131.04 244.368 129.27C243.05 127.501 242.338 125.354 242.338 123.148C242.34 122.761 242.363 122.374 242.408 121.989C240.919 121.78 240.408 119.94 238.919 119.731Z" fill="#2F2E41"/>
<path d="M328.625 279H185.691C185.592 279 185.496 278.96 185.426 278.89C185.355 278.82 185.316 278.724 185.316 278.625C185.316 278.526 185.355 278.43 185.426 278.36C185.496 278.29 185.592 278.25 185.691 278.25H328.625C328.724 278.25 328.82 278.29 328.89 278.36C328.961 278.43 329 278.526 329 278.625C329 278.724 328.961 278.82 328.89 278.89C328.82 278.96 328.724 279 328.625 279Z" fill="#3F3D56"/>
</g>
<defs>
<clipPath id="clip0_108_181">
<rect width="329" height="279" fill="white"/>
</clipPath>
</defs>
</svg>
