<svg width="202" height="202" viewBox="0 0 202 202" fill="none" xmlns="http://www.w3.org/2000/svg">
<rect opacity="0.1" width="202" height="202" rx="101" fill="#38972E"/>
<g clip-path="url(#clip0_359_1938)">
<path d="M101.5 171C134.913 171 162 169.409 162 167.447C162 165.484 134.913 163.894 101.5 163.894C68.0868 163.894 41 165.484 41 167.447C41 169.409 68.0868 171 101.5 171Z" fill="#E6E6E6"/>
<path d="M109.584 77.1475H108.934V59.3187C108.934 56.582 107.846 53.9574 105.911 52.0223C103.976 50.0871 101.351 49 98.6139 49H60.8381C58.1012 49 55.4763 50.0871 53.541 52.0223C51.6057 53.9574 50.5185 56.582 50.5185 59.3187V157.128C50.5185 159.865 51.6057 162.489 53.541 164.425C55.4763 166.36 58.1012 167.447 60.8381 167.447H98.6139C101.351 167.447 103.976 166.36 105.911 164.425C107.846 162.489 108.934 159.865 108.934 157.128V89.8382H109.584V77.1475Z" fill="#3F3D56"/>
<path d="M106.737 59.3908V157.056C106.737 159.1 105.925 161.06 104.48 162.505C103.034 163.95 101.074 164.762 99.0303 164.762H61.0732C59.0293 164.762 57.0691 163.95 55.6239 162.505C54.1786 161.06 53.3666 159.1 53.3665 157.056V59.3908C53.3666 57.347 54.1786 55.3869 55.6239 53.9417C57.0692 52.4965 59.0294 51.6846 61.0734 51.6846H65.6782C65.4519 52.2405 65.3657 52.8435 65.4272 53.4406C65.4887 54.0377 65.696 54.6105 66.0308 55.1087C66.3657 55.6068 66.8178 56.0151 67.3475 56.2975C67.8772 56.5799 68.4682 56.7278 69.0685 56.7283H90.7099C91.3102 56.7279 91.9012 56.58 92.4309 56.2976C92.9606 56.0151 93.4128 55.6069 93.7477 55.1087C94.0825 54.6106 94.2898 54.0378 94.3513 53.4407C94.4129 52.8436 94.3267 52.2405 94.1004 51.6846H99.0303C101.074 51.6846 103.034 52.4965 104.48 53.9417C105.925 55.3869 106.737 57.347 106.737 59.3908Z" fill="white"/>
<path d="M70.9011 133.335H70.1027L70.3693 117.744H70.6358L70.9011 133.335Z" fill="#E6E6E6"/>
<path d="M71.5661 107.929L72.8547 105.938C72.4725 104.883 72.0312 103.85 71.5327 102.844L70.6996 103.517L71.3593 102.498C70.7305 101.26 70.2358 100.48 70.2358 100.48C70.2358 100.48 67.652 104.552 66.7883 108.864L68.4418 111.419L66.6117 109.94C66.5465 110.443 66.513 110.948 66.5113 111.455C66.5113 116.561 68.179 120.7 70.2362 120.7C72.2934 120.7 73.9611 116.56 73.9611 111.455C73.9611 109.872 73.6029 108.216 73.1082 106.684L71.5661 107.929Z" fill="#CCCCCC"/>
<path d="M91.6823 133.335H90.884L91.1506 117.744H91.4171L91.6823 133.335Z" fill="#E6E6E6"/>
<path d="M92.3473 107.929L93.6359 105.938C93.2537 104.883 92.8124 103.85 92.3139 102.844L91.4808 103.517L92.1405 102.498C91.5117 101.26 91.017 100.48 91.017 100.48C91.017 100.48 88.4329 104.552 87.5701 108.864L89.2223 111.418L87.3922 109.94C87.327 110.442 87.2935 110.948 87.2918 111.454C87.2918 116.56 88.9595 120.699 91.0167 120.699C93.0739 120.699 94.7416 116.56 94.7416 111.454C94.7416 109.872 94.3834 108.216 93.8887 106.684L92.3473 107.929Z" fill="#CCCCCC"/>
<path d="M70.2935 81.6543C74.3443 81.6543 77.6282 78.3707 77.6282 74.3203C77.6282 70.2699 74.3443 66.9863 70.2935 66.9863C66.2427 66.9863 62.9589 70.2699 62.9589 74.3203C62.9589 78.3707 66.2427 81.6543 70.2935 81.6543Z" fill="#E6E6E6"/>
<path d="M80.4525 131.066H78.8067L79.3554 98.9189H79.9039L80.4525 131.066Z" fill="#E6E6E6"/>
<path d="M81.8241 78.6796L84.4809 74.5744C83.693 72.3982 82.783 70.2681 81.7551 68.1943L80.0371 69.5817L81.3975 67.4796C80.1004 64.928 79.081 63.3203 79.081 63.3203C79.081 63.3203 73.7528 71.716 71.9726 80.6053L75.381 85.8739L71.6068 82.8257C71.4724 83.8612 71.4032 84.9041 71.3998 85.9483C71.3998 96.4762 74.8384 105.011 79.0802 105.011C83.3219 105.011 86.7605 96.4762 86.7605 85.9483C86.7605 82.6846 86.0221 79.2701 85.0035 76.1114L81.8241 78.6796Z" fill="#CCCCCC"/>
<path d="M106.737 135.699V157.553C106.737 161.986 103.287 165.579 99.0302 165.579H61.0732C56.8169 165.579 53.3663 161.986 53.3661 157.553V137.83C59.947 129.785 69.462 124.977 79.6027 124.572C89.7434 124.167 99.584 128.202 106.737 135.699Z" fill="#E6E6E6"/>
<path opacity="0.2" d="M80.0931 157.257C86.2957 157.257 91.3239 152.23 91.3239 146.028C91.3239 139.826 86.2957 134.798 80.0931 134.798C73.8905 134.798 68.8623 139.826 68.8623 146.028C68.8623 152.23 73.8905 157.257 80.0931 157.257Z" fill="#38972E"/>
<path d="M80.0931 155.07C85.0875 155.07 89.1362 151.021 89.1362 146.028C89.1362 141.034 85.0875 136.985 80.0931 136.985C75.0988 136.985 71.0501 141.034 71.0501 146.028C71.0501 151.021 75.0988 155.07 80.0931 155.07Z" fill="#38972E"/>
<path d="M79.0384 149.894L75.8514 145.797L77.7048 144.356L79.2136 146.295L84.3111 140.915L86.0158 142.53L79.0384 149.894Z" fill="white"/>
<path d="M128.149 131.963C131.388 131.963 134.013 129.338 134.013 126.1C134.013 122.862 131.388 120.237 128.149 120.237C124.911 120.237 122.286 122.862 122.286 126.1C122.286 129.338 124.911 131.963 128.149 131.963Z" fill="#2F2E41"/>
<path d="M130.526 159.014L130.977 161.145L139.412 160.416L138.745 157.271L130.526 159.014Z" fill="#FFB8B8"/>
<path d="M129.869 165.673L128.45 158.976L131.037 158.428L131.908 162.537C131.98 162.877 131.985 163.228 131.921 163.569C131.858 163.91 131.727 164.236 131.538 164.527C131.349 164.818 131.104 165.07 130.817 165.266C130.531 165.463 130.209 165.601 129.869 165.673Z" fill="#2F2E41"/>
<path d="M125.242 158.9L124.292 160.861L116.279 158.133L117.68 155.239L125.242 158.9Z" fill="#FFB8B8"/>
<path d="M123.055 161.992L124.886 158.211L127.266 159.364L124.283 165.525C123.651 165.219 123.167 164.675 122.937 164.013C122.707 163.35 122.749 162.623 123.055 161.992Z" fill="#2F2E41"/>
<path d="M109.453 155.028C109.727 155.079 110.009 155.07 110.279 155C110.55 154.93 110.801 154.802 111.017 154.625C111.232 154.447 111.406 154.224 111.526 153.973C111.646 153.721 111.709 153.445 111.711 153.166L124.926 140.984L121.644 138.442L109.679 151.224C109.21 151.251 108.767 151.45 108.435 151.782C108.102 152.114 107.903 152.556 107.875 153.025C107.847 153.494 107.993 153.957 108.283 154.327C108.574 154.696 108.99 154.945 109.453 155.028L109.453 155.028Z" fill="#FFB8B8"/>
<path d="M127.414 132.228C129.824 132.228 131.778 130.275 131.778 127.865C131.778 125.455 129.824 123.501 127.414 123.501C125.003 123.501 123.05 125.455 123.05 127.865C123.05 130.275 125.003 132.228 127.414 132.228Z" fill="#FFB8B8"/>
<path d="M131.33 153.515C128.269 153.515 124.582 152.871 122.308 150.233L122.256 150.173L122.31 150.115C122.328 150.096 124 148.184 122.329 144.774L120.032 145.481L117.745 142.462L119.012 138.662L124.196 134.487C124.939 133.892 125.843 133.534 126.792 133.458C128.509 133.292 130.182 132.816 131.729 132.052C132.437 131.708 133.216 131.538 134.003 131.555L134.105 131.558C134.344 131.564 134.58 131.62 134.797 131.72C135.015 131.821 135.209 131.964 135.369 132.142C135.53 132.32 135.652 132.528 135.729 132.755C135.806 132.982 135.837 133.221 135.818 133.46C135.467 138.014 134.846 149.013 136.67 152.801L136.717 152.899L136.612 152.925C134.878 153.315 133.107 153.513 131.33 153.515L131.33 153.515Z" fill="#38972E"/>
<path d="M122.908 150.173C122.908 150.173 111.359 149.107 110.115 152.483C108.871 155.859 110.293 157.458 112.425 158.168C114.557 158.879 119.71 159.767 119.71 159.767L122.02 156.925L128.061 157.28C128.061 157.28 134.792 161.184 136.653 165.359C137.053 166.263 137.689 167.041 138.496 167.611C139.302 168.182 140.248 168.523 141.233 168.599C142.726 168.703 144.052 168.139 144.052 165.807C144.052 160.478 136.589 152.838 136.589 152.838L122.908 150.173Z" fill="#2F2E41"/>
<path d="M114.113 155.415C114.113 155.415 117.133 154.527 121.931 156.836L114.113 155.415Z" fill="#2F2E41"/>
<path d="M123.06 125.082C124.765 126.122 126.686 126.755 128.675 126.931L128.083 126.222C128.514 126.382 128.967 126.471 129.427 126.489C129.656 126.495 129.885 126.448 130.093 126.351C130.301 126.253 130.484 126.108 130.626 125.928C130.742 125.74 130.811 125.527 130.827 125.307C130.843 125.087 130.805 124.866 130.718 124.663C130.537 124.26 130.256 123.909 129.902 123.644C129.274 123.147 128.533 122.813 127.744 122.672C126.956 122.532 126.145 122.588 125.384 122.836C124.861 122.992 124.393 123.292 124.033 123.702C123.856 123.908 123.734 124.155 123.676 124.421C123.618 124.686 123.627 124.962 123.702 125.223" fill="#2F2E41"/>
<path d="M128.118 121.594C128.893 119.793 130.054 118.185 131.518 116.881C132.459 116.046 133.557 115.328 134.796 115.111C136.035 114.895 137.431 115.266 138.191 116.268C138.813 117.088 138.929 118.186 138.861 119.212C138.792 120.238 138.563 121.255 138.585 122.283C138.607 123.332 138.891 124.359 139.411 125.27C139.931 126.182 140.671 126.949 141.563 127.502C142.454 128.056 143.47 128.378 144.518 128.439C145.566 128.5 146.612 128.298 147.562 127.853C146.492 128.444 145.659 129.38 144.666 130.093C143.674 130.805 142.363 131.294 141.235 130.823C140.041 130.325 139.494 128.972 139.066 127.751L137.159 122.307C136.835 121.382 136.495 120.429 135.833 119.705C135.172 118.982 134.098 118.541 133.188 118.904C132.498 119.18 132.048 119.839 131.655 120.468C131.261 121.097 130.845 121.768 130.18 122.099C129.515 122.429 128.527 122.226 128.31 121.515" fill="#2F2E41"/>
<path d="M129.615 153.53C129.54 153.53 129.465 153.526 129.39 153.517C128.893 153.461 128.437 153.217 128.115 152.836C127.793 152.454 127.629 151.963 127.657 151.464C127.686 150.965 127.904 150.496 128.268 150.153C128.631 149.81 129.113 149.62 129.612 149.621C129.699 149.621 129.787 149.628 129.873 149.64L135.839 143.29L135.216 141.214L138.343 139.812L139.22 141.954C139.514 142.68 139.566 143.481 139.368 144.239C139.171 144.997 138.734 145.67 138.123 146.16L131.556 151.384C131.563 151.447 131.567 151.511 131.567 151.575C131.567 151.85 131.509 152.122 131.396 152.373C131.284 152.624 131.121 152.849 130.916 153.032C130.559 153.354 130.096 153.531 129.615 153.53Z" fill="#FFB8B8"/>
<path d="M134.279 132.407C134.486 132.316 134.71 132.266 134.936 132.263C135.162 132.259 135.387 132.302 135.597 132.387C135.806 132.473 135.996 132.6 136.155 132.761C136.315 132.922 136.44 133.113 136.523 133.324L139.61 141.113L134.812 144.311L134.279 132.407Z" fill="#38972E"/>
</g>
<defs>
<clipPath id="clip0_359_1938">
<rect width="121" height="122" fill="white" transform="translate(41 49)"/>
</clipPath>
</defs>
</svg>
