<svg width="103" height="77" viewBox="0 0 103 77" fill="none" xmlns="http://www.w3.org/2000/svg">
<g clip-path="url(#clip0_108_976)">
<path d="M13.8151 0.015625H87.6259C89.2417 0.015625 90.4403 1.51692 90.0858 3.09643L79.6828 49.4287C79.5075 50.2096 79.0722 50.9074 78.4484 51.4075C77.8247 51.9075 77.0497 52.18 76.2508 52.1801H2.81868C1.01538 52.1801 -0.323621 50.5071 0.0682615 48.7429L10.2657 2.86704C10.4455 2.05819 10.8952 1.33493 11.5405 0.81656C12.1858 0.298192 12.9881 0.0156805 13.8151 0.015625Z" fill="#0481A3"/>
<path d="M46.1423 12.6309H101.041C102.295 12.6309 103.226 13.7955 102.952 15.0211L93.7275 56.3515C93.5717 57.0491 93.1835 57.6726 92.6267 58.1195C92.0699 58.5663 91.3778 58.8098 90.6645 58.8099H35.5985C34.4647 58.8099 33.623 57.7569 33.872 56.6483L43.2117 14.9812C43.361 14.3142 43.7326 13.718 44.2652 13.2908C44.7978 12.8636 45.4597 12.6309 46.1419 12.6309" fill="#14BEF0"/>
<path d="M46.1424 12.6309C45.4601 12.6309 44.7982 12.8636 44.2656 13.2908C43.733 13.718 43.3615 14.3142 43.2121 14.9812L34.8735 52.1798H76.2506C77.0494 52.1799 77.8244 51.9076 78.4482 51.4076C79.072 50.9076 79.5073 50.2097 79.6826 49.4288L87.9451 12.6313H46.1424V12.6309Z" fill="#73D8F4"/>
<path d="M28.2091 26.4199H53.3371C54.695 26.4199 55.7001 27.6858 55.3947 29.0121L44.8597 74.7368C44.7115 75.38 44.3501 75.954 43.8345 76.365C43.3189 76.776 42.6796 76.9998 42.0208 77H16.509C15.285 77 14.3769 75.862 14.6469 74.6659L24.9348 29.0424C25.1027 28.2979 25.5183 27.6327 26.1133 27.1562C26.7083 26.6796 27.4474 26.42 28.2091 26.4199Z" fill="#6ABA2F"/>
<path d="M33.8722 56.6485C33.6235 57.7571 34.4652 58.8106 35.599 58.8106H48.5295L50.0572 52.1797H34.874L33.8722 56.6485Z" fill="#B8EC00"/>
<path d="M53.3372 26.4199H40.6477L34.874 52.1794H50.0569L55.3948 29.0117C55.7005 27.6858 54.6955 26.4199 53.3372 26.4199Z" fill="white"/>
<path d="M28.2092 26.4199C27.4473 26.4199 26.7082 26.6795 26.1131 27.1561C25.518 27.6326 25.1024 28.2978 24.9345 29.0424L19.7173 52.1794H34.8736L40.6476 26.4199H28.2092Z" fill="#81D958"/>
</g>
<defs>
<clipPath id="clip0_108_976">
<rect width="103" height="77" fill="white"/>
</clipPath>
</defs>
</svg>
