<svg width="22" height="22" viewBox="0 0 22 22" fill="none" xmlns="http://www.w3.org/2000/svg">
<path d="M17.3615 15.8302L22 20.4676L20.4676 22L15.8302 17.3615C14.1047 18.7448 11.9585 19.4971 9.74697 19.4939C4.36664 19.4939 0 15.1273 0 9.74697C0 4.36664 4.36664 0 9.74697 0C15.1273 0 19.4939 4.36664 19.4939 9.74697C19.4971 11.9585 18.7448 14.1047 17.3615 15.8302ZM15.189 15.0266C16.5635 13.6131 17.3311 11.7185 17.328 9.74697C17.328 5.55794 13.9349 2.16599 9.74697 2.16599C5.55794 2.16599 2.16599 5.55794 2.16599 9.74697C2.16599 13.9349 5.55794 17.328 9.74697 17.328C11.7185 17.3311 13.6131 16.5635 15.0266 15.189L15.189 15.0266Z" fill="#130F26"/>
</svg>
