<svg width="60" height="60" viewBox="0 0 60 60" fill="none" xmlns="http://www.w3.org/2000/svg">
<g clip-path="url(#clip0_427_770)">
<path d="M48.75 47.5H6.25C2.805 47.5 0 44.695 0 41.25V16.25C0 12.805 2.805 10 6.25 10H48.75C52.195 10 55 12.805 55 16.25V17.5H56.2275C58.295 17.5 59.9775 19.1825 59.9775 21.25V36.25C59.9775 38.3175 58.295 40 56.2275 40H55V41.25C55 44.695 52.195 47.5 48.75 47.5ZM6.25 12.5C4.1825 12.5 2.5 14.1825 2.5 16.25V41.25C2.5 43.3175 4.1825 45 6.25 45H48.75C50.8175 45 52.5 43.3175 52.5 41.25V38.75C52.5 38.06 53.06 37.5 53.75 37.5H56.2275C56.9175 37.5 57.4775 36.94 57.4775 36.25V21.25C57.4775 20.56 56.9175 20 56.2275 20H53.75C53.06 20 52.5 19.44 52.5 18.75V16.25C52.5 14.1825 50.8175 12.5 48.75 12.5H6.25Z" fill="#828282"/>
<path d="M46.25 40H8.75C8.06 40 7.5 39.44 7.5 38.75V18.75C7.5 18.06 8.06 17.5 8.75 17.5H46.25C46.94 17.5 47.5 18.06 47.5 18.75V38.75C47.5 39.44 46.94 40 46.25 40ZM10 37.5H45V20H10V37.5Z" fill="#828282"/>
</g>
<defs>
<clipPath id="clip0_427_770">
<rect width="60" height="60" fill="white"/>
</clipPath>
</defs>
</svg>
