<svg width="60" height="60" viewBox="0 0 60 60" fill="none" xmlns="http://www.w3.org/2000/svg">
<path d="M46.7049 2.95312H33.1959C32.3571 2.95412 31.5529 3.28779 30.9597 3.88095C30.3666 4.47412 30.0329 5.27833 30.0319 6.11719V7.89844H27.36C26.5603 7.89971 25.7908 8.20356 25.2059 8.74893C24.6211 9.29431 24.2643 10.0408 24.2072 10.8384H20.3264C20.1089 10.8384 19.9002 10.9249 19.7464 11.0787C19.5925 11.2325 19.5061 11.4412 19.5061 11.6587C19.5061 11.8763 19.5925 12.085 19.7464 12.2388C19.9002 12.3926 20.1089 12.4791 20.3264 12.4791H24.1936V17.4009H20.3264C20.1089 17.4009 19.9002 17.4874 19.7464 17.6412C19.5925 17.795 19.5061 18.0037 19.5061 18.2213C19.5061 18.4388 19.5925 18.6475 19.7464 18.8013C19.9002 18.9551 20.1089 19.0416 20.3264 19.0416H24.2049C24.2618 19.8393 24.6185 20.586 25.2034 21.1315C25.7882 21.6771 26.5579 21.9811 27.3577 21.9825H30.0295V31.9434C30.0307 32.7823 30.3644 33.5864 30.9575 34.1795C31.5506 34.7727 32.3548 35.1064 33.1936 35.1075H39.2311L39.7116 38.4506C39.7398 38.6458 39.8375 38.8243 39.9865 38.9534C40.1356 39.0825 40.3262 39.1536 40.5234 39.1538H41.4933V44.8078C41.4923 46.2625 40.9143 47.6574 39.8861 48.6864C38.858 49.7155 37.4636 50.2946 36.0089 50.2969H35.8125C35.9377 48.8723 35.9461 47.2992 35.9424 45.675C35.9424 44.5039 35.4771 43.3808 34.649 42.5527C33.821 41.7246 32.6978 41.2594 31.5267 41.2594C30.3556 41.2594 29.2325 41.7246 28.4044 42.5527C27.5763 43.3808 27.1111 44.5039 27.1111 45.675C27.1123 47.335 27.7721 48.9266 28.9456 50.1007C30.119 51.2748 31.7104 51.9354 33.3703 51.9375H33.9263C33.4083 54.3867 32.2894 55.4062 30.2063 55.4062H19.8136C18.3143 55.4051 16.8766 54.8093 15.816 53.7495C14.7554 52.6897 14.1585 51.2525 14.1563 49.7531V47.1839H15.7247C15.8324 47.184 15.9391 47.1628 16.0387 47.1216C16.1382 47.0804 16.2287 47.02 16.3049 46.9438C16.3811 46.8676 16.4415 46.7771 16.4827 46.6776C16.5239 46.578 16.5451 46.4713 16.545 46.3636V38.5017C16.5451 38.394 16.5239 38.2873 16.4827 38.1877C16.4415 38.0882 16.3811 37.9977 16.3049 37.9215C16.2287 37.8453 16.1382 37.7849 16.0387 37.7437C15.9391 37.7025 15.8324 37.6813 15.7247 37.6814H15.6502V34.9219C15.6502 34.7043 15.5637 34.4957 15.4099 34.3418C15.2561 34.188 15.0474 34.1016 14.8299 34.1016H11.8463C11.6287 34.1016 11.42 34.188 11.2662 34.3418C11.1124 34.4957 11.0259 34.7043 11.0259 34.9219V37.6814H10.9514C10.8437 37.6813 10.737 37.7025 10.6374 37.7437C10.5379 37.7849 10.4474 37.8453 10.3712 37.9215C10.295 37.9977 10.2346 38.0882 10.1934 38.1877C10.1522 38.2873 10.131 38.394 10.1311 38.5017V46.3636C10.131 46.4713 10.1522 46.578 10.1934 46.6776C10.2346 46.7771 10.295 46.8676 10.3712 46.9438C10.4474 47.02 10.5379 47.0804 10.6374 47.1216C10.737 47.1628 10.8437 47.184 10.9514 47.1839H12.5156V49.7531C12.5185 51.6874 13.2884 53.5416 14.6566 54.9089C16.0247 56.2763 17.8793 57.0451 19.8136 57.0469H30.2063C34.0406 57.0469 35.1694 54.3108 35.5997 51.9375H36.0094C37.8991 51.9349 39.7105 51.1827 41.0463 49.8461C42.3821 48.5095 43.133 46.6975 43.1344 44.8078V39.15H44.1047C44.3019 39.1499 44.4925 39.0788 44.6416 38.9497C44.7907 38.8205 44.8883 38.6421 44.9166 38.4469L45.397 35.1038H46.7049C47.5437 35.1026 48.3478 34.7689 48.941 34.1758C49.5341 33.5826 49.8678 32.7785 49.8689 31.9397V6.11531C49.8674 5.27678 49.5335 4.47305 48.9404 3.88029C48.3473 3.28753 47.5434 2.95412 46.7049 2.95312ZM30.0319 20.3377H27.36C26.9561 20.3372 26.5689 20.1765 26.2833 19.8909C25.9977 19.6053 25.8371 19.2181 25.8366 18.8142V11.0583C25.8371 10.6544 25.9977 10.2672 26.2833 9.9816C26.5689 9.696 26.9561 9.53534 27.36 9.53484H30.0319V20.3377ZM12.6666 35.7422H14.0095V37.6814H12.6666V35.7422ZM11.7717 45.5433V39.322H14.9063V45.5433H11.7717ZM34.1667 50.2969H33.3699C32.1451 50.2949 30.9711 49.8072 30.1055 48.9407C29.24 48.0742 28.7534 46.8998 28.7527 45.675C28.7537 45.3106 28.8266 44.9499 28.967 44.6137C29.1075 44.2774 29.3128 43.9721 29.5712 43.7152C29.8297 43.4583 30.1362 43.2548 30.4733 43.1163C30.8104 42.9778 31.1715 42.9071 31.5359 42.9082C31.9003 42.9093 32.2609 42.9821 32.5972 43.1226C32.9335 43.263 33.2388 43.4683 33.4957 43.7268C33.7526 43.9852 33.9561 44.2917 34.0946 44.6288C34.233 44.9659 34.3037 45.327 34.3027 45.6914C34.3069 47.3222 34.2984 48.9042 34.1667 50.2969ZM43.3936 37.5094H41.2345L40.8886 35.1033H43.7395L43.3936 37.5094ZM48.2283 31.9392C48.2278 32.3431 48.0671 32.7303 47.7815 33.0159C47.4959 33.3015 47.1087 33.4622 46.7049 33.4627H33.1959C32.7921 33.4622 32.4049 33.3015 32.1193 33.0159C31.8337 32.7303 31.673 32.3431 31.6725 31.9392V6.11531C31.673 5.71142 31.8337 5.32422 32.1193 5.03863C32.4049 4.75304 32.7921 4.59237 33.1959 4.59187H46.7049C47.1087 4.59237 47.4959 4.75304 47.7815 5.03863C48.0671 5.32422 48.2278 5.71142 48.2283 6.11531V31.9392Z" fill="#828282"/>
</svg>
