<svg width="60" height="60" viewBox="0 0 60 60" fill="none" xmlns="http://www.w3.org/2000/svg">
<g clip-path="url(#clip0_427_759)">
<path d="M57 36H54V24C54 10.766 43.234 0 30 0C16.766 0 6 10.766 6 24V36H3C1.34297 36 0 37.343 0 39V51C0 52.657 1.34297 54 3 54H6C6 57.308 8.69203 60 12 60C15.308 60 18 57.308 18 54V36C18 32.692 15.308 30 12 30C10.907 30 9.88395 30.2989 9 30.812V24C9 12.402 18.402 3 30 3C41.598 3 51 12.402 51 24V30.812C50.1161 30.2989 49.093 30 48 30C44.692 30 42 32.692 42 36V54C42 57.308 44.692 60 48 60C51.308 60 54 57.308 54 54H57C58.657 54 60 52.657 60 51V39C60 37.343 58.657 36 57 36ZM6 51H3V39H6V51ZM12 33C13.657 33 15 34.343 15 36V54C15 55.657 13.657 57 12 57C10.343 57 9 55.657 9 54V36C9 34.343 10.343 33 12 33ZM51 54C51 55.657 49.657 57 48 57C46.343 57 45 55.657 45 54V36C45 34.343 46.343 33 48 33C49.657 33 51 34.343 51 36V54ZM57 51H54V39H57V51Z" fill="#828282"/>
</g>
<defs>
<clipPath id="clip0_427_759">
<rect width="60" height="60" fill="white"/>
</clipPath>
</defs>
</svg>
