<svg width="60" height="60" viewBox="0 0 60 60" fill="none" xmlns="http://www.w3.org/2000/svg">
<path d="M44.0909 7.51465H15.9092C15.4238 7.51465 15.0303 7.90816 15.0303 8.39355V27.1814C15.0303 27.6668 15.4238 28.0603 15.9092 28.0603C16.3946 28.0603 16.7881 27.6668 16.7881 27.1814V9.27246H43.2119V51.6055C43.2119 52.0909 43.6054 52.4844 44.0908 52.4844C44.5762 52.4844 44.9697 52.0909 44.9697 51.6055V8.39355C44.9698 7.90816 44.5764 7.51465 44.0909 7.51465Z" fill="#828282"/>
<path d="M32.8183 3.75781H27.1819C26.6965 3.75781 26.303 4.15133 26.303 4.63672C26.303 5.12211 26.6965 5.51562 27.1819 5.51562H32.8183C33.3036 5.51562 33.6972 5.12211 33.6972 4.63672C33.6972 4.15133 33.3038 3.75781 32.8183 3.75781Z" fill="#828282"/>
<path d="M23.4336 3.75781H23.4243C22.9389 3.75781 22.55 4.15133 22.55 4.63672C22.55 5.12211 22.9483 5.51562 23.4336 5.51562C23.919 5.51562 24.3125 5.12211 24.3125 4.63672C24.3125 4.15133 23.919 3.75781 23.4336 3.75781Z" fill="#828282"/>
<path d="M44.0907 0H15.909C13.3524 0 11.2725 2.07996 11.2725 4.63641V28.6046C11.2725 30.345 11.9502 31.9811 13.1807 33.2116L38.0608 58.0916C39.2913 59.3223 40.9276 60 42.6679 60H44.0908C46.6474 60 48.7272 57.92 48.7272 55.3636V4.63641C48.7272 2.07996 46.6474 0 44.0907 0ZM39.3037 56.8486L14.4237 31.9687C14.2355 31.7805 14.0662 31.5786 13.9142 31.3665C14.5188 31.6559 15.1952 31.8183 15.909 31.8183H36.5756C38.1629 31.8183 39.4542 33.1097 39.4542 34.6969V55.3635C39.4542 56.0773 39.6166 56.7537 39.9059 57.3581C39.6938 57.2062 39.492 57.0368 39.3037 56.8486ZM46.9694 55.3635C46.9694 56.9508 45.678 58.2422 44.0907 58.2422C42.5034 58.2422 41.2121 56.9508 41.2121 55.3636V34.697C41.2121 32.1404 39.1321 30.0606 36.5757 30.0606H15.909C14.3217 30.0606 13.0304 28.7692 13.0304 27.182V4.63641C13.0304 3.0491 14.3218 1.75781 15.9091 1.75781H44.0907C45.678 1.75781 46.9694 3.04922 46.9694 4.63641V55.3635Z" fill="#828282"/>
</svg>
