<svg width="38" height="70" viewBox="0 0 38 70" fill="none" xmlns="http://www.w3.org/2000/svg">
<path fill-rule="evenodd" clip-rule="evenodd" d="M36.5 59.5V65.3333C36.5 67.2663 34.933 68.8334 33 68.8334H5C3.067 68.8334 1.5 67.2663 1.5 65.3333V59.5C1.5 61.433 3.067 63 5 63H33C34.933 63 36.5 61.433 36.5 59.5Z" fill="white"/>
<path fill-rule="evenodd" clip-rule="evenodd" d="M33 63V65.3333C33 67.2663 31.433 68.8334 29.5 68.8334H33C34.933 68.8334 36.5 67.2663 36.5 65.3333V59.5C36.5 61.433 34.933 63 33 63Z" fill="#828282"/>
<path d="M33 5.83301H5C3.067 5.83301 1.5 7.40001 1.5 9.33301V59.4997C1.5 61.4327 3.067 62.9997 5 62.9997H33C34.933 62.9997 36.5 61.4327 36.5 59.4997V9.33301C36.5 7.40001 34.933 5.83301 33 5.83301Z" fill="white"/>
<path fill-rule="evenodd" clip-rule="evenodd" d="M36.4997 9.33305V59.4997C36.4999 61.4102 34.9682 62.9679 33.058 62.9997H32.9997C24.6653 62.7879 16.4436 61.0232 8.75635 57.7964C7.89417 57.4312 7.33378 56.586 7.33302 55.6497V3.49972C7.3306 2.73235 7.70769 2.01341 8.34038 1.57917C8.97306 1.14493 9.77951 1.05155 10.4947 1.32972C17.6689 4.15702 25.2899 5.68202 32.9997 5.83305C34.9327 5.83305 36.4997 7.40006 36.4997 9.33305V9.33305Z" fill="white"/>
<path fill-rule="evenodd" clip-rule="evenodd" d="M32.9999 5.83323C25.2901 5.6822 17.6691 4.15721 10.4949 1.3299C9.69216 1.01729 8.78188 1.18185 8.1394 1.75573C14.9742 4.32569 22.199 5.70483 29.4999 5.83323C31.4329 5.83323 32.9999 7.40024 32.9999 9.33323V59.4999C32.9985 61.1275 31.8753 62.5393 30.2897 62.9066C31.1846 62.9579 32.0864 62.9964 32.9999 62.9999H33.0582C34.9684 62.9681 36.5002 61.4103 36.4999 59.4999V9.33323C36.4999 7.40024 34.9329 5.83323 32.9999 5.83323Z" fill="white"/>
<path fill-rule="evenodd" clip-rule="evenodd" d="M29.5 5.83301L26.1622 9.39368C25.5004 10.0995 24.5759 10.4999 23.6083 10.4997H14.3917C13.4241 10.4999 12.4996 10.0995 11.8378 9.39368L8.5 5.83301H29.5Z" fill="white"/>
<path fill-rule="evenodd" clip-rule="evenodd" d="M26.0001 5.83301L22.6622 9.39368C22.0004 10.0995 21.076 10.4999 20.1084 10.4997H23.6084C24.576 10.4999 25.5004 10.0995 26.1622 9.39368L29.5001 5.83301H26.0001Z" fill="#828282"/>
<path fill-rule="evenodd" clip-rule="evenodd" d="M11.9999 18.666C11.5282 18.6659 11.1029 18.3817 10.9223 17.9458C10.7418 17.5099 10.8416 17.0082 11.1751 16.6745L13.5084 14.3412C13.9662 13.899 14.6939 13.9054 15.1439 14.3554C15.5939 14.8054 15.6002 15.5331 15.1581 15.9908L12.8248 18.3242C12.606 18.543 12.3093 18.6659 11.9999 18.666V18.666Z" fill="white"/>
<path fill-rule="evenodd" clip-rule="evenodd" d="M11.9999 25.666C11.5282 25.6659 11.1029 25.3816 10.9223 24.9458C10.7418 24.5099 10.8416 24.0082 11.1751 23.6745L20.5085 14.3412C20.9662 13.899 21.6939 13.9054 22.1439 14.3554C22.5939 14.8054 22.6003 15.5331 22.1581 15.9908L12.8248 25.3242C12.606 25.543 12.3093 25.6659 11.9999 25.666V25.666Z" fill="white"/>
<path d="M32.9999 69.9997C35.5772 69.9997 37.6666 67.9104 37.6666 65.333V9.33305C37.6666 6.75572 35.5772 4.66639 32.9999 4.66639C25.4317 4.53399 17.9501 3.03197 10.9173 0.233053C9.84165 -0.178466 8.63244 -0.034525 7.68349 0.617991C6.73455 1.27051 6.16733 2.34808 6.16659 3.49972V4.66639H4.99992C2.42259 4.66639 0.333252 6.75572 0.333252 9.33305V65.333C0.333252 67.9104 2.42259 69.9997 4.99992 69.9997H32.9999ZM35.3333 9.33305V59.4997C35.3334 60.7744 34.3106 61.8133 33.0361 61.833C24.8431 61.6329 16.7602 59.8993 9.20575 56.7219C8.77546 56.5399 8.49697 56.1169 8.49992 55.6497V7.53872L10.9873 10.1906C11.8702 11.1306 13.1019 11.6646 14.3916 11.6664H23.6083C24.8981 11.6653 26.1301 11.1312 27.0126 10.1906L30.0051 6.99972H32.9999C34.2886 6.99972 35.3333 8.04439 35.3333 9.33305V9.33305ZM11.1938 6.99972H26.8061L25.3093 8.59572C24.8684 9.06587 24.2528 9.33274 23.6083 9.33305H14.3916C13.7469 9.33223 13.131 9.06547 12.6894 8.59572L11.1938 6.99972ZM8.49992 3.49972C8.49987 3.11619 8.68832 2.75714 9.00398 2.53932C9.31965 2.3215 9.72221 2.27273 10.0808 2.40889C12.3709 3.28855 14.6669 4.03055 16.9548 4.66289H8.49992V3.49972ZM2.66659 9.33305C2.66659 8.04439 3.71125 6.99972 4.99992 6.99972H6.16659V55.6497C6.16321 57.0564 7.00507 58.3275 8.30159 58.8732C11.1213 60.044 14.0131 61.0326 16.9594 61.833H4.99992C3.71125 61.833 2.66659 60.7884 2.66659 59.4997V9.33305ZM2.66659 65.333V63.5177C3.37282 63.9376 4.17829 64.1615 4.99992 64.1664H32.9999H33.0361H33.2193V64.1442C33.9642 64.1095 34.6896 63.8945 35.3333 63.5177V65.333C35.3333 66.6217 34.2886 67.6664 32.9999 67.6664H4.99992C3.71125 67.6664 2.66659 66.6217 2.66659 65.333V65.333Z" fill="#828282"/>
</svg>
