<svg width="60" height="60" viewBox="0 0 60 60" fill="none" xmlns="http://www.w3.org/2000/svg">
<path d="M35.5 5H29.5C28.671 5 28 5.67102 28 6.5C28 7.32898 28.671 8 29.5 8H35.5C36.329 8 37 7.32898 37 6.5C37 5.67102 36.329 5 35.5 5Z" fill="#828282"/>
<path d="M42 0H18C14.692 0 12 2.69203 12 6V54C12 57.308 14.692 60 18 60H42C45.308 60 48 57.308 48 54V6C48 2.69203 45.308 0 42 0ZM45 54C45 55.657 43.657 57 42 57H18C16.343 57 15 55.657 15 54V6C15 4.34297 16.343 3 18 3H42C43.657 3 45 4.34297 45 6V54Z" fill="#828282"/>
<path d="M30 55C31.6569 55 33 53.6569 33 52C33 50.3431 31.6569 49 30 49C28.3431 49 27 50.3431 27 52C27 53.6569 28.3431 55 30 55Z" fill="#828282"/>
<path d="M24.5 8C25.3284 8 26 7.32843 26 6.5C26 5.67157 25.3284 5 24.5 5C23.6716 5 23 5.67157 23 6.5C23 7.32843 23.6716 8 24.5 8Z" fill="#828282"/>
</svg>
