<svg width="20" height="21" viewBox="0 0 20 21" fill="none" xmlns="http://www.w3.org/2000/svg">
<path d="M0.75 1.25L2.83 1.61L3.793 13.083C3.87 14.02 4.653 14.739 5.593 14.736H16.502C17.399 14.738 18.16 14.078 18.287 13.19L19.236 6.632C19.342 5.899 18.833 5.219 18.101 5.113C18.037 5.104 3.164 5.099 3.164 5.099" stroke="#828282" stroke-width="1.5" stroke-linecap="round" stroke-linejoin="round"/>
<path d="M12.125 8.79492H14.898" stroke="#828282" stroke-width="1.5" stroke-linecap="round" stroke-linejoin="round"/>
<path fill-rule="evenodd" clip-rule="evenodd" d="M5.15435 18.2021C5.45535 18.2021 5.69835 18.4461 5.69835 18.7461C5.69835 19.0471 5.45535 19.2911 5.15435 19.2911C4.85335 19.2911 4.61035 19.0471 4.61035 18.7461C4.61035 18.4461 4.85335 18.2021 5.15435 18.2021Z" fill="#828282" stroke="#828282" stroke-width="1.5" stroke-linecap="round" stroke-linejoin="round"/>
<path fill-rule="evenodd" clip-rule="evenodd" d="M16.4346 18.2021C16.7356 18.2021 16.9796 18.4461 16.9796 18.7461C16.9796 19.0471 16.7356 19.2911 16.4346 19.2911C16.1336 19.2911 15.8906 19.0471 15.8906 18.7461C15.8906 18.4461 16.1336 18.2021 16.4346 18.2021Z" fill="#828282" stroke="#828282" stroke-width="1.5" stroke-linecap="round" stroke-linejoin="round"/>
</svg>
