<svg width="12" height="12" viewBox="0 0 12 12" fill="none" xmlns="http://www.w3.org/2000/svg">
<path fill-rule="evenodd" clip-rule="evenodd" d="M8.24568 0.459078C8.61376 0.459078 8.98126 0.510994 9.33068 0.628244C11.4838 1.32824 12.2596 3.69074 11.6115 5.75574C11.244 6.81099 10.6432 7.77408 9.85626 8.56099C8.72985 9.65183 7.49376 10.6202 6.16318 11.4543L6.01735 11.5424L5.86568 11.4485C4.53043 10.6202 3.28735 9.65183 2.15043 8.55516C1.36876 7.76824 0.767347 6.81099 0.394014 5.75574C-0.265153 3.69074 0.51068 1.32824 2.6871 0.615994C2.85626 0.557661 3.03068 0.516828 3.20568 0.494078H3.27568C3.4396 0.470161 3.60235 0.459078 3.76568 0.459078H3.82985C4.19735 0.470161 4.55318 0.534327 4.89793 0.651577H4.93235C4.95568 0.662661 4.97318 0.674911 4.98485 0.685994C5.11376 0.727411 5.23568 0.774077 5.35235 0.838244L5.57401 0.937411C5.62758 0.965978 5.6877 1.00963 5.73966 1.04735C5.77258 1.07125 5.80222 1.09278 5.82485 1.10658C5.83437 1.11219 5.84405 1.11784 5.8538 1.12354C5.90382 1.15273 5.95592 1.18315 5.99985 1.21683C6.64793 0.721577 7.43485 0.453244 8.24568 0.459078ZM9.79734 4.65908C10.0365 4.65266 10.2407 4.46074 10.2582 4.21516V4.14575C10.2757 3.3285 9.78042 2.58825 9.02734 2.30241C8.78817 2.22016 8.52567 2.34908 8.43817 2.59408C8.35651 2.83908 8.48484 3.10741 8.72984 3.19433C9.10376 3.33433 9.35401 3.70241 9.35401 4.11016V4.12825C9.34292 4.26183 9.38317 4.39075 9.46484 4.48991C9.54651 4.58908 9.66901 4.64683 9.79734 4.65908Z" fill="white"/>
</svg>
